# xmcd CD database file
#
# Track frame offsets:
#	150
#	25433
#	44717
#	63825
#	79959
#	103093
#	120813
#	139021
#	156855
#	186575
#	206833
#	237292
#
# Disc length: 3650 seconds
#
# Revision: 1
# Processed by: cddbd v1.5.1PL0 Copyright (c) Steve Scherf et al.
# Submitted via: CDex 1.51
#
DISCID=ab0e400c
DTITLE=Chick Korea Electric Band - Light Years
DYEAR=1987
DGENRE=Jazz
TTITLE0=Light Years
TTITLE1=Second Sight
TTITLE2=Flamingo
TTITLE3=Prism
TTITLE4=Time Track
TTITLE5=Star Light
TTITLE6=Your Eyes
TTITLE7=The Dragon
TTITLE8=View From The Outside
TTITLE9=Smoke Screen
TTITLE10=Hymn of the Heart
TTITLE11=Kaliedoscope
EXTD=YEAR: 1987
EXTT0=
EXTT1=
EXTT2=
EXTT3=
EXTT4=
EXTT5=
EXTT6=
EXTT7=
EXTT8=
EXTT9=
EXTT10=
EXTT11=
PLAYORDER=
